# xmcd
# 
# Track frame offsets:
#     150
#     4864
#     21630
#     55438
#     79206
#     100750
#     122926
#     124927
#     154166
#     169825
#     188919
#     192215
#     230037
#     258407
#     261327
# 
# Disc length: 3620
# 
# Revision: 4
# Processed by: cddbd v1.5.2PL0 Copyright (c) Steve Scherf et al.
# Submitted via: fre:ac v1.0.31
# 
DISCID=d90e220f
DTITLE=Masters At Work - Our TIme Is Coming
DYEAR=2002
DGENRE=House
TTITLE0=Mr.V
TTITLE1=Like A Butterfly (You Send Me) (feat. Patti Austin)
TTITLE2=Backfired (feat. India)
TTITLE3=Work (feat. Puppah Nas-T and Denise)
TTITLE4=Maw Expensive (A Tribute To Fela) (feat. Wunmi)
TTITLE5=Our Time Is Coming (feat. Roy Ayers)
TTITLE6=Lovin'
TTITLE7=Every Now And Then (feat. Billie)
TTITLE8=Lean On Me (feat. James Ingram)
TTITLE9=Life Is But A Dream (feat Lynae)
TTITLE10=Back In The Day
TTITLE11=Latin Lover (feat. Stephanie Mills)
TTITLE12=Pienso En Ti (I Think Of You) (feat. Luis Salinas)
TTITLE13=Deep and Dirty
TTITLE14=Michele's Message
EXTD=
EXTT0=
EXTT1=
EXTT2=
EXTT3=
EXTT4=
EXTT5=
EXTT6=
EXTT7=
EXTT8=
EXTT9=
EXTT10=
EXTT11=
EXTT12=
EXTT13=
EXTT14=
PLAYORDER=
